<svg width="51" height="45" viewBox="0 0 51 45" fill="none" xmlns="http://www.w3.org/2000/svg">
<circle cx="31" cy="20" r="19.5" fill="white" stroke="#767272"/>
<g clip-path="url(#clip0_2945_239)">
<path d="M40.8846 14.1786C40.7701 14.0145 40.5859 13.9131 40.3858 13.9045L27.9796 13.3698C27.6236 13.3542 27.3262 13.629 27.3109 13.9833C27.2958 14.3375 27.5702 14.6367 27.9244 14.6519L39.4907 15.1505L37.2165 22.2461H27.0962L25.2678 12.2907C25.2276 12.0725 25.0778 11.8904 24.8712 11.8094L21.8766 10.6329C21.5466 10.5037 21.1742 10.6658 21.0445 10.9955C20.9151 11.3253 21.0772 11.6979 21.4071 11.8276L24.0697 12.8736L25.9304 23.0038C25.9865 23.3083 26.2519 23.5295 26.5617 23.5295H26.8703L26.1655 25.4872C26.1065 25.6512 26.1308 25.8333 26.2312 25.9757C26.3315 26.1183 26.4945 26.203 26.6686 26.203H27.1629C26.8566 26.5439 26.6686 26.9928 26.6686 27.4864C26.6686 28.548 27.5324 29.4116 28.5937 29.4116C29.655 29.4116 30.5188 28.548 30.5188 27.4864C30.5188 26.9929 30.3308 26.5439 30.0245 26.203H34.2217C33.9153 26.5439 33.7273 26.9928 33.7273 27.4864C33.7273 28.548 34.5908 29.4116 35.6524 29.4116C36.714 29.4116 37.5775 28.548 37.5775 27.4864C37.5775 26.9929 37.3895 26.5439 37.0833 26.203H37.6845C37.9799 26.203 38.2192 25.9636 38.2192 25.6683C38.2192 25.3729 37.9798 25.1335 37.6845 25.1335H27.4295L28.0069 23.5293H37.6844C37.9635 23.5293 38.2104 23.349 38.2954 23.0835L40.9692 14.7413C41.0306 14.5509 40.9991 14.3428 40.8846 14.1786ZM28.5937 28.3423C28.1219 28.3423 27.7381 27.9585 27.7381 27.4867C27.7381 27.0148 28.1219 26.631 28.5937 26.631C29.0656 26.631 29.4493 27.0148 29.4493 27.4867C29.4493 27.9585 29.0656 28.3423 28.5937 28.3423ZM35.6524 28.3423C35.1805 28.3423 34.7968 27.9585 34.7968 27.4867C34.7968 27.0148 35.1805 26.631 35.6524 26.631C36.1243 26.631 36.508 27.0148 36.508 27.4867C36.508 27.9585 36.1243 28.3423 35.6524 28.3423Z" fill="#767272"/>
</g>
<circle cx="12.5" cy="32.5" r="12.5" fill="#0E49B5"/>
<path d="M11.6865 31.1484H12.7393C13.2406 31.1484 13.612 31.0231 13.8535 30.7725C14.0951 30.5218 14.2158 30.1891 14.2158 29.7744C14.2158 29.3734 14.0951 29.0612 13.8535 28.8379C13.6165 28.6146 13.2884 28.5029 12.8691 28.5029C12.4909 28.5029 12.1742 28.6077 11.9189 28.8174C11.6637 29.0225 11.5361 29.2913 11.5361 29.624H9.56055C9.56055 29.1045 9.69954 28.6396 9.97754 28.2295C10.2601 27.8148 10.652 27.4912 11.1533 27.2588C11.6592 27.0264 12.2152 26.9102 12.8213 26.9102C13.874 26.9102 14.6989 27.1631 15.2959 27.6689C15.8929 28.1702 16.1914 28.863 16.1914 29.7471C16.1914 30.2028 16.0524 30.6221 15.7744 31.0049C15.4964 31.3877 15.1318 31.6816 14.6807 31.8867C15.2412 32.0872 15.6582 32.388 15.9316 32.7891C16.2096 33.1901 16.3486 33.6641 16.3486 34.2109C16.3486 35.0951 16.0251 35.8037 15.3779 36.3369C14.7354 36.8701 13.8831 37.1367 12.8213 37.1367C11.8278 37.1367 11.0143 36.8747 10.3809 36.3506C9.75195 35.8265 9.4375 35.1338 9.4375 34.2725H11.4131C11.4131 34.6462 11.5521 34.9515 11.8301 35.1885C12.1126 35.4255 12.459 35.5439 12.8691 35.5439C13.3385 35.5439 13.7054 35.4209 13.9697 35.1748C14.2386 34.9242 14.373 34.5938 14.373 34.1836C14.373 33.1901 13.8262 32.6934 12.7324 32.6934H11.6865V31.1484Z" fill="white"/>
<defs>
<clipPath id="clip0_2945_239">
<rect width="20" height="20" fill="white" transform="translate(21 10)"/>
</clipPath>
</defs>
</svg>
